# xmcd CD database file
#
# Track frame offsets:
#        150
#        25054
#        44649
#        64762
#        84278
#
# Disc length: 1449 seconds
#
# Revision: 0
# Processed by: cddbd v1.5.2PL0 Copyright (c) Steve Scherf et al.
# Submitted via: CUERipper 2.1.5
#
DISCID=3705a705
DTITLE=Tony Holiday And The Velvetones - Tony Holiday And The Velvetones
DYEAR=2017
DGENRE=
TTITLE0=Mean Ol' Woman
TTITLE1=Cross Your Heart
TTITLE2=You Ruined Poor Me
TTITLE3=New Groove
TTITLE4=Barefoot Blues
EXTD=
EXTT0=
EXTT1=
EXTT2=
EXTT3=
EXTT4=
PLAYORDER=
